<?xml version="1.0" encoding="iso-8859-1"?>
<!-- Generator: Adobe Illustrator 18.0.0, SVG Export Plug-In . SVG Version: 6.00 Build 0)  -->
<!DOCTYPE svg PUBLIC "-//W3C//DTD SVG 1.1//EN" "http://www.w3.org/Graphics/SVG/1.1/DTD/svg11.dtd">
<svg version="1.1" id="Capa_1" xmlns="http://www.w3.org/2000/svg" xmlns:xlink="http://www.w3.org/1999/xlink" x="0px" y="0px"
	 viewBox="0 0 300.576 300.576" style="enable-background:new 0 0 300.576 300.576;" xml:space="preserve">
<g>
	<path d="M285.576,2.075c-8.284,0-15,6.716-15,15v251.426H19.15c-8.284,0-15,6.716-15,15s6.716,15,15,15h266.426
		c8.284,0,15-6.716,15-15V17.075C300.576,8.791,293.86,2.075,285.576,2.075z"/>
	<path d="M190.678,111.676c-1.429-0.618-2.789-1.328-4.091-2.105v127.828c0,5.247,4.253,9.5,9.5,9.5h42c5.247,0,9.5-4.253,9.5-9.5
		V68.224l-10.896,25.21C229.023,111.175,208.424,119.345,190.678,111.676z"/>
	<path d="M110.296,246.899h42c5.247,0,9.5-4.253,9.5-9.5V104.693l-61,24.183v108.523
		C100.796,242.646,105.049,246.899,110.296,246.899z"/>
	<path d="M15.004,160.247v77.152c0,5.247,4.253,9.5,9.5,9.5h42c5.247,0,9.5-4.253,9.5-9.5v-98.695l-48.102,19.069
		c-4.233,1.679-8.597,2.474-12.889,2.474C15.01,160.247,15.007,160.247,15.004,160.247z"/>
	<path d="M20.532,139.182l149.037-59.084l22.223-8.81l-0.998,2.309c-3.287,7.604,0.213,16.434,7.817,19.72
		c7.6,3.287,16.433-0.212,19.72-7.817l15.473-35.8c3.287-7.604-0.213-16.434-7.817-19.72l-35.799-15.473
		c-7.608-3.292-16.434,0.214-19.72,7.817c-3.287,7.604,0.213,16.434,7.817,19.72l2.807,1.213l-22.446,8.898L9.476,111.293
		c-7.701,3.053-11.469,11.771-8.416,19.473C4.11,138.459,12.821,142.237,20.532,139.182z"/>
</g>
<g>
</g>
<g>
</g>
<g>
</g>
<g>
</g>
<g>
</g>
<g>
</g>
<g>
</g>
<g>
</g>
<g>
</g>
<g>
</g>
<g>
</g>
<g>
</g>
<g>
</g>
<g>
</g>
<g>
</g>
</svg>
